PathFileType	4	(X/Y/Z)	F:\MotionCapture\20160217\3\Generated_files\2_Test01-Dynamic.trc
DataRate	CameraRate	NumFrames	NumMarkers	Units	OrigDataRate	OrigDataStartFrame	OrigNumFrames
120.00	120.00	       7	39	mm	120.00	173	       690
Frame#	Time	Top.Head			Front.Head			Rear.Head			R.Shoulder			R.Offset			R.Elbow			R.Wrist			L.Shoulder			L.Elbow			L.Wrist			R.ASIS			L.ASIS			V.Sacral			R.Thigh			R.Knee			R.Shank			R.Ankle			R.Heel			R.Toe			L.Thigh			L.Knee			L.Shank			L.Ankle			L.Heel			L.Toe			R1			R2			R3			R4			R5			R6			R7			L1			L2			L3			L4			L5			L6			L7			V_Mid_ASIS			V_Pelvis_Origin			V_R.Hip_JC			V_L.Hip_JC			V_R.Knee_JC			V_L.Knee_JC			V_R.Ankle_JC			V_L.Ankle_JC			V_Mid_Hip			V_Mid_Shoulder			V_R.Hand			V_L.Hand			V_R.Toe_Offset_Static			V_L.Toe_Offset_Static			V_R.Toe_Offset			V_L.Toe_Offset			
		X1	Y1	Z1	X2	Y2	Z2	X3	Y3	Z3	X4	Y4	Z4	X5	Y5	Z5	X6	Y6	Z6	X7	Y7	Z7	X8	Y8	Z8	X9	Y9	Z9	X10	Y10	Z10	X11	Y11	Z11	X12	Y12	Z12	X13	Y13	Z13	X14	Y14	Z14	X15	Y15	Z15	X16	Y16	Z16	X17	Y17	Z17	X18	Y18	Z18	X19	Y19	Z19	X20	Y20	Z20	X21	Y21	Z21	X22	Y22	Z22	X23	Y23	Z23	X24	Y24	Z24	X25	Y25	Z25	X26	Y26	Z26	X27	Y27	Z27	X28	Y28	Z28	X29	Y29	Z29	X30	Y30	Z30	X31	Y31	Z31	X32	Y32	Z32	X33	Y33	Z33	X34	Y34	Z34	X35	Y35	Z35	X36	Y36	Z36	X37	Y37	Z37	X38	Y38	Z38	X39	Y39	Z39	

173	1.433	2312.66455	128.87128	1726.65442	2215.97485	119.56116	1626.13733	2431.23804	130.16776	1676.41394	2387.79224	324.37823	1424.69446	2539.94409	60.07871	1283.71423	2401.70923	414.97305	1095.14087	2287.67969	379.04135	861.44684	2384.99170	-85.76188	1425.95642	2405.69214	-172.57478	1099.94507	2312.23047	-154.53285	860.30426	2332.31860	272.88150	956.39893	2330.17065	-16.04275	956.73260	2557.75806	122.27519	954.88507	2328.64990	245.27222	575.48328	2410.17896	301.76135	470.90387	2431.21826	239.13953	235.86301	2501.68311	320.91107	76.06482	2567.05884	259.80551	48.65425	2358.52661	306.72638	49.58472	2293.29370	19.08619	627.54718	2382.64819	-37.79636	469.15515	2387.90820	32.35172	323.59460	2494.36377	-44.65459	73.07291	2558.55811	14.58664	50.77158	2357.49512	-42.06665	51.97422	2309.31689	287.54468	45.74523	2350.52686	271.11902	56.25034	2448.93457	233.08592	62.10202	2525.20630	230.40285	48.85622	2538.81055	304.48322	50.85616	2462.24146	332.28830	43.44236	2396.06494	347.55487	43.48492	2309.62280	-17.84433	47.02795	2344.50977	-4.83685	53.26962	2436.32666	41.73704	56.87002	2521.26709	45.15621	49.30867	2534.25488	-26.73036	53.60375	2458.94019	-57.22434	43.70606	2398.11450	-68.73054	48.72922																																																	902.83429	418.08987	475.08090	4120.29492	-586.39099	680.74072	3189.26733	244.29588	-154.99678	
174	1.442	2311.65259	128.07391	1726.55872	2214.01099	118.75690	1626.17712	2429.81299	129.52751	1676.10400	2386.15479	323.81241	1424.66431	2538.48340	59.25389	1283.89624	2400.61255	414.90848	1095.13049	2286.46802	378.86182	861.62872	2383.03711	-86.54771	1425.87085	2405.37280	-173.54643	1100.00696	2312.48242	-155.65517	860.28302	2332.00635	272.37759	956.15198	2328.51025	-17.53323	955.89789	2556.76929	121.26303	955.11804	2328.58716	244.76678	575.17737	2410.16895	301.53644	471.04245	2431.28711	239.10378	235.83043	2501.82056	321.00400	76.05716	2567.17407	259.80026	48.65242	2358.66846	306.84830	49.71912	2291.16553	18.79413	626.99609	2380.42090	-38.08420	468.13281	2386.62549	32.32526	323.33066	2493.69189	-43.69054	72.15213	2558.51270	14.55361	50.79161	2357.54053	-42.06434	52.08641	2310.03564	287.84238	46.71783	2350.61060	271.32422	56.42658	2448.69165	232.97832	62.22353	2525.30518	230.45764	48.84896	2538.86084	304.47821	50.78000	2462.45337	332.38528	43.54921	2396.14966	347.58240	43.47134	2309.72876	-17.72110	47.32269	2344.59106	-5.01218	53.43046	2436.31958	41.97248	57.23723	2520.58740	46.46446	48.64806	2534.20508	-26.81959	53.53812	2458.95947	-57.33532	43.82217	2398.19824	-68.65301	48.86161																																																	904.30573	417.62723	474.82816	4124.91943	-589.12347	679.21777	3190.16382	244.46812	-155.19087	
175	1.450	2310.40552	127.45949	1726.60632	2215.95972	118.56580	1626.23267	2428.43066	128.64258	1675.82129	2384.05933	322.63541	1424.55835	2536.65552	58.44327	1283.93298	2399.11230	413.98425	1094.86731	2284.69214	377.94290	861.16962	2381.30200	-87.30704	1425.79395	2404.56787	-174.78076	1099.92737	2312.86450	-157.40816	859.83875	2331.85083	271.37137	955.55798	2327.76904	-17.66322	955.89001	2555.75806	120.32533	955.32916	2328.13037	244.32571	574.74274	2409.97852	301.13739	471.18518	2431.41626	239.05621	235.76915	2503.92773	322.83524	77.22853	2567.30493	259.83249	48.58420	2358.87988	307.10876	49.88709	2289.54370	18.35856	626.76947	2378.96924	-38.42015	467.54178	2385.92236	32.16594	322.94571	2493.46313	-43.79504	72.10036	2558.44702	14.50271	50.79683	2357.54175	-41.96561	52.26689	2310.12036	288.16147	47.26250	2350.68555	271.81259	56.67839	2448.83813	233.13713	62.21912	2525.43311	231.75101	48.93446	2538.92529	304.50815	50.66064	2462.64380	332.73193	43.56261	2396.26318	347.62683	43.44849	2309.74438	-17.62621	47.52882	2344.55566	-4.98002	53.58234	2436.30933	41.72750	56.94274	2520.51978	46.36283	48.63913	2534.14404	-26.87591	53.63532	2458.83765	-57.25195	43.79463	2398.22021	-68.63411	48.90981																																																	905.87952	417.05649	474.60733	3191.66357	244.83307	-155.32082	
176	1.458	2309.00464	126.59038	1726.57910	2210.17603	117.43452	1626.55371	2426.72949	127.72131	1675.38623	2382.16748	321.76028	1424.22839	2534.79736	57.58701	1283.92334	2397.16040	413.05740	1094.88196	2282.93677	377.28174	860.95746	2379.23193	-88.30877	1425.56323	2403.91895	-175.85759	1100.71814	2313.27197	-159.35365	859.29181	2329.62939	270.07559	955.47327	2326.77222	-18.60716	955.15143	2554.59692	119.24290	955.34290	2327.64575	243.64671	574.26379	2409.75562	300.81281	471.29697	2431.48218	239.04066	235.72800	2504.01563	322.91550	77.25110	2567.37793	259.86057	48.55057	2359.14453	307.16998	49.99745	2288.64404	17.48474	626.41449	2377.11230	-38.97868	466.93027	2383.82764	32.08972	322.65961	2493.30054	-43.85759	72.08016	2558.32202	14.49246	50.78395	2357.47803	-41.90181	52.36307	2310.40088	288.44305	47.69098	2350.90210	271.84302	56.94983	2449.18970	233.27399	62.23233	2525.59399	231.76482	48.99368	2538.97925	304.56497	50.62299	2462.70410	332.72061	43.47371	2396.33960	347.64908	43.42399	2309.71924	-17.51511	47.71708	2344.53223	-4.74175	53.99975	2436.31494	41.75319	57.00475	2520.40527	46.41758	48.57911	2533.97412	-26.93955	53.48606	2458.99292	-58.45100	43.57941	2398.84668	-68.99118	50.15544																																																	907.07141	416.69446	474.34613	3270.62158	116.86346	-149.22890	3191.85596	244.86630	-155.31898	
177	1.467	2307.41650	125.64602	1726.62292	2209.63721	116.72910	1627.21899	2425.18359	126.89445	1674.97180	2380.44556	321.19022	1424.01770	2533.15747	56.43402	1283.95557	2395.51416	412.18097	1094.69348	2281.82397	377.00589	860.75098	2376.92700	-89.39226	1425.58105	2403.61475	-177.31474	1100.63184	2312.85889	-160.64732	858.86041	2328.75049	269.28934	955.25592	2324.96729	-20.17171	954.64130	2553.51807	118.32181	955.55524	2327.26123	243.37245	574.06134	2409.43799	300.31668	471.30472	2431.46436	239.01768	235.71243	2504.12280	322.96588	77.25478	2567.52417	259.86987	48.49269	2359.28613	307.14777	50.24650	2286.89502	17.39986	626.45557	2375.57349	-39.71478	466.94766	2382.86133	32.10830	322.22968	2493.21753	-43.90597	72.05251	2558.29004	14.45110	50.77244	2357.50000	-41.85831	52.49117	2310.69067	288.38693	48.34663	2351.14624	271.81424	57.27888	2449.32959	233.33311	62.27192	2525.73828	231.80911	49.08329	2539.10181	304.68372	50.53244	2462.73071	331.61569	42.27475	2396.37280	347.64975	43.41174	2309.66309	-17.50118	47.86964	2344.43213	-4.50007	54.23920	2436.11987	41.86431	57.00767	2520.42773	46.45661	48.57327	2533.92896	-26.88135	53.57046	2458.81079	-57.28310	43.88234	2398.25342	-68.56580	49.02438																																																	908.77222	416.10779	474.19110	3192.28418	244.99713	-155.47688	
178	1.475	2306.02734	125.11066	1726.65344	2207.13013	115.95956	1627.27246	2423.56519	125.84415	1674.66577	2377.68677	319.82108	1423.45105	2531.19043	55.55573	1284.05164	2394.02368	411.71271	1093.88574	2279.99658	376.44144	860.30408	2375.02808	-90.23602	1425.56702	2402.45239	-178.49315	1100.45569	2313.99976	-162.66689	858.83612	2329.32642	267.75226	954.27905	2323.76782	-20.98951	954.42029	2552.03149	116.97222	955.58228	2326.51978	242.85571	573.74194	2409.00000	299.63751	471.29254	2431.35522	238.97169	235.71593	2504.33105	323.02759	77.28575	2567.64014	259.92133	48.48408	2359.43286	307.20667	50.35511	2285.20239	16.63396	626.10327	2374.07666	-40.18590	466.70380	2382.27856	32.35551	321.76379	2493.17651	-43.88807	71.96562	2558.37085	14.45973	50.75337	2357.61108	-41.73502	52.61282	2311.29028	288.80298	48.93437	2351.25732	271.72104	57.26578	2449.51660	233.37105	62.45755	2525.81104	231.89830	49.13616	2539.24121	304.77704	50.49822	2462.84399	332.88159	43.36673	2396.44971	347.65048	43.41329	2309.80322	-17.36393	48.24263	2344.53467	-4.42250	54.46350	2436.35376	41.92254	56.99810	2521.14771	44.99757	49.13636	2533.98584	-26.85793	53.53532	2458.69238	-57.14057	43.83112	2398.50757	-67.41209	48.12342																																																	3191.96313	244.87672	-155.40414	3269.20044	117.02821	-148.93079	
179	1.483	2304.29199	124.27360	1726.46570	2204.82739	114.82516	1627.51294	2421.65771	124.96676	1674.07629	2375.70581	319.11191	1423.08691	2529.05835	54.42378	1283.96375	2391.81177	410.43201	1093.53979	2277.40845	375.10422	860.41083	2372.91406	-91.04131	1425.49500	2400.84570	-179.84981	1100.34912	2313.70996	-164.24960	858.48395	2323.87524	266.80066	954.58173	2322.04517	-22.14079	953.95056	2550.66528	115.69975	955.66565	2325.98657	242.37263	573.42511	2408.62012	299.12283	471.12109	2431.18799	238.86983	235.69037	2504.47388	323.16440	77.24530	2567.73608	259.98993	48.48016	2360.06885	306.46793	50.16874	2283.84985	16.05816	625.39771	2372.71558	-40.54214	466.09387	2382.28516	32.28895	321.29089	2493.11060	-43.79735	71.77419	2558.50830	14.45972	50.74054	2357.72998	-41.64253	52.65144	2312.10229	288.40839	49.75802	2351.58569	271.69171	57.35811	2450.75513	233.61580	62.57691	2525.89893	231.93599	49.16306	2539.34326	304.87253	50.48669	2462.78784	333.06012	43.22951	2396.48120	347.71399	43.36568	2310.31372	-17.31145	48.79112	2344.41504	-4.61887	54.39695	2436.47974	41.86371	56.99682	2521.28906	45.00939	49.14653	2534.12183	-26.88502	53.48501	2458.80396	-57.11580	43.81182	2398.30957	-68.43089	49.22254																																																	906.06195	418.38022	471.80640	3193.35229	245.23099	-155.58266	
